<svg xmlns="http://www.w3.org/2000/svg" width="256" height="256" viewBox="0 0 256 256" role="img" aria-label="Expense Management Logo">
  <defs>
    <linearGradient id="g" x1="0" x2="1" y1="0" y2="1">
      <stop offset="0%" stop-color="#0ea5e9"/>
      <stop offset="100%" stop-color="#22c55e"/>
    </linearGradient>
    <filter id="shadow" x="-20%" y="-20%" width="140%" height="140%" color-interpolation-filters="sRGB">
      <feDropShadow dx="0" dy="2" stdDeviation="6" flood-color="#000" flood-opacity="0.2"/>
    </filter>
  </defs>

  <!-- Background badge -->
  <rect x="16" y="16" width="224" height="224" rx="32" fill="url(#g)"/>

  <!-- Building (company) -->
  <g fill="#fff" opacity="0.95" filter="url(#shadow)">
    <rect x="48" y="76" width="80" height="120" rx="8"/>
    <rect x="66" y="94" width="14" height="14" rx="2"/>
    <rect x="94" y="94" width="14" height="14" rx="2"/>
    <rect x="66" y="122" width="14" height="14" rx="2"/>
    <rect x="94" y="122" width="14" height="14" rx="2"/>
    <rect x="66" y="150" width="42" height="14" rx="2"/>
  </g>

  <!-- Receipt (expenses) -->
  <g transform="translate(116,52)" filter="url(#shadow)">
    <path d="M28 8h64a8 8 0 0 1 8 8v96l-12-8-12 8-12-8-12 8-12-8-12 8V16a8 8 0 0 1 8-8z" fill="#ffffff"/>
    <!-- Dollar and lines -->
    <circle cx="48" cy="44" r="14" fill="#0ea5e9" opacity="0.15"/>
    <path d="M48 34c-5 0-8 2.6-8 6 0 7 12 5 12 10 0 2-2 4-6 4-3 0-5-.8-6-2" stroke="#0ea5e9" stroke-width="4" fill="none" stroke-linecap="round"/>
    <path d="M48 28v32" stroke="#0ea5e9" stroke-width="4" stroke-linecap="round"/>
    <rect x="24" y="72" width="56" height="6" rx="3" fill="#0ea5e9" opacity="0.7"/>
    <rect x="24" y="86" width="40" height="6" rx="3" fill="#22c55e" opacity="0.7"/>
  </g>

  <!-- Checkmark accent -->
  <path d="M92 200l16 16 36-36" fill="none" stroke="#22c55e" stroke-width="10" stroke-linecap="round" stroke-linejoin="round"/>
</svg>